<svg width="24" height="24" viewBox="0 0 24 24" fill="none" xmlns="http://www.w3.org/2000/svg">
<g clip-path="url(#clip0_976_84983)">
<path d="M12.68 5.87945C13.38 5.63945 13.9 4.97945 13.98 4.23945C14.03 3.76945 13.93 3.32945 13.7 2.96945L12.42 0.749453C12.23 0.419453 11.75 0.419453 11.55 0.749453L10.27 2.96945C10.1 3.26945 10 3.61945 10 3.99945C10 5.31945 11.3 6.34945 12.68 5.87945ZM16.53 15.9195L15.53 14.9195L14.45 15.9895C13.15 17.2895 10.87 17.2995 9.56 15.9895L8.49 14.9195L7.4 15.9895C6.75 16.6395 5.88 16.9995 4.96 16.9995C4.23 16.9995 3.56 16.7695 3 16.3895V19.9995C3 21.0995 3.9 21.9995 5 21.9995H19C20.1 21.9995 21 21.0995 21 19.9995V16.3895C20.25 16.8995 19.29 17.1395 18.26 16.9095C17.6 16.7695 17.01 16.3995 16.53 15.9195ZM18 8.99945H13V7.99945C13 7.44945 12.55 6.99945 12 6.99945C11.45 6.99945 11 7.44945 11 7.99945V8.99945H6C4.34 8.99945 3 10.3395 3 11.9995V13.4595C3 14.3095 3.5 15.1295 4.31 15.3995C5.04 15.6395 5.83 15.4595 6.34 14.9395L8.48 12.8095L10.61 14.9395C11.37 15.6995 12.62 15.6995 13.38 14.9395L15.52 12.8095L17.65 14.9395C18.08 15.3695 18.68 15.5695 19.3 15.4895C20.29 15.3595 20.99 14.4295 20.99 13.4295V12.0095C21 10.3395 19.66 8.99945 18 8.99945Z" fill="white"/>
</g>
<defs>
<clipPath id="clip0_976_84983">
<rect width="24" height="24" fill="white"/>
</clipPath>
</defs>
</svg>
