<svg width="40" height="40" viewBox="0 0 40 40" fill="none" xmlns="http://www.w3.org/2000/svg">
<rect width="40" height="40" rx="10" fill="#E1E1E7"/>
<path d="M20 8C16.741 8 16.3323 8.01383 15.0524 8.0722C13.7751 8.13047 12.9028 8.33336 12.1395 8.62995C11.3504 8.93662 10.6812 9.34696 10.0141 10.0141C9.34696 10.6812 8.93662 11.3504 8.62998 12.1396C8.33332 12.9028 8.13051 13.7751 8.07217 15.0524C8.01379 16.3323 8 16.741 8 20C8 23.259 8.01379 23.6677 8.07217 24.9476C8.13051 26.2249 8.33332 27.0972 8.62998 27.8604C8.93665 28.6495 9.347 29.3188 10.0141 29.9859C10.6812 30.653 11.3504 31.0634 12.1395 31.3701C12.9028 31.6666 13.7751 31.8695 15.0524 31.9278C16.3323 31.9862 16.741 32 20 32C23.259 32 23.6677 31.9862 24.9476 31.9278C26.2249 31.8695 27.0972 31.6666 27.8604 31.3701C28.6495 31.0634 29.3188 30.653 29.9859 29.9859C30.653 29.3188 31.0634 28.6495 31.3701 27.8604C31.6666 27.0972 31.8695 26.2249 31.9278 24.9476C31.9862 23.6677 32 23.259 32 20C32 16.741 31.9862 16.3323 31.9278 15.0524C31.8695 13.7751 31.6666 12.9028 31.3701 12.1396C31.0634 11.3504 30.653 10.6812 29.9859 10.0141C29.3188 9.34696 28.6495 8.93662 27.8604 8.62995C27.0972 8.33336 26.2249 8.13047 24.9476 8.0722C23.6677 8.01383 23.259 8 20 8ZM20 10.1621C23.2041 10.1621 23.5837 10.1744 24.849 10.2321C26.019 10.2855 26.6544 10.481 27.0772 10.6453C27.6374 10.863 28.0371 11.123 28.457 11.5429C28.877 11.9629 29.137 12.3626 29.3547 12.9227C29.519 13.3456 29.7145 13.981 29.7679 15.151C29.8256 16.4163 29.8379 16.7959 29.8379 20C29.8379 23.2041 29.8256 23.5837 29.7679 24.849C29.7145 26.019 29.519 26.6544 29.3547 27.0772C29.137 27.6374 28.877 28.0371 28.457 28.457C28.0371 28.877 27.6374 29.137 27.0773 29.3547C26.6544 29.519 26.019 29.7145 24.849 29.7679C23.5839 29.8256 23.2044 29.8379 20 29.8379C16.7956 29.8379 16.4162 29.8256 15.151 29.7678C13.981 29.7145 13.3456 29.519 12.9228 29.3547C12.3626 29.137 11.9629 28.877 11.543 28.457C11.1231 28.0371 10.863 27.6374 10.6453 27.0773C10.481 26.6544 10.2855 26.019 10.2321 24.849C10.1744 23.5837 10.1621 23.2041 10.1621 20C10.1621 16.7959 10.1744 16.4163 10.2321 15.151C10.2855 13.981 10.481 13.3456 10.6453 12.9228C10.863 12.3626 11.1231 11.9629 11.5429 11.543C11.9629 11.123 12.3626 10.863 12.9227 10.6453C13.3456 10.481 13.981 10.2855 15.151 10.2321C16.4163 10.1744 16.7959 10.1621 20 10.1621" fill="white"/>
<path d="M20.0001 24C17.7909 24 16 22.2091 16 20C16 17.7908 17.7909 15.9999 20.0001 15.9999C22.2092 15.9999 24.0001 17.7908 24.0001 20C24.0001 22.2091 22.2092 24 20.0001 24ZM20.0001 13.8378C16.5968 13.8378 13.8379 16.5967 13.8379 20C13.8379 23.4032 16.5968 26.1621 20.0001 26.1621C23.4033 26.1621 26.1622 23.4032 26.1622 20C26.1622 16.5967 23.4033 13.8378 20.0001 13.8378V13.8378ZM27.8457 13.5943C27.8457 14.3896 27.201 15.0343 26.4057 15.0343C25.6104 15.0343 24.9657 14.3896 24.9657 13.5943C24.9657 12.799 25.6104 12.1543 26.4057 12.1543C27.201 12.1543 27.8457 12.799 27.8457 13.5943" fill="white"/>
</svg>
