<svg width="20" height="20" viewBox="0 0 20 20" fill="none" xmlns="http://www.w3.org/2000/svg">
<path d="M10 0.884766C11.808 0.884766 13.4803 1.24566 15.0167 1.96746C16.5532 2.68925 17.7679 3.67075 18.6607 4.91193C19.5536 6.15307 20 7.50692 20 8.97343C20 10.4399 19.5536 11.7957 18.6607 13.0407C17.7679 14.2857 16.555 15.2691 15.0223 15.9909C13.4896 16.7126 11.8155 17.0736 10 17.0736C9.42709 17.0736 8.83555 17.0315 8.22544 16.9475C5.57662 18.8341 4.16668 19.7889 3.99555 19.8118C3.91369 19.8423 3.83555 19.8385 3.76115 19.8003C3.73138 19.7774 3.70907 19.7468 3.69419 19.7086C3.6793 19.6705 3.67188 19.6361 3.67188 19.6055V19.5597C3.71654 19.2618 4.05505 18.0207 4.6875 15.8362C3.25149 15.103 2.11123 14.131 1.26674 12.9204C0.422247 11.7098 0 10.3941 0 8.97343C0 7.50692 0.446429 6.15307 1.33929 4.91193C2.23214 3.67075 3.4468 2.68925 4.98326 1.96746C6.51971 1.24566 8.19196 0.884766 10 0.884766Z" fill="black"/>
</svg>
