<svg width="28" height="27" viewBox="0 0 28 27" fill="none" xmlns="http://www.w3.org/2000/svg">
<path d="M13.9947 0.189453C6.26662 0.189453 0 5.16123 0 11.2966C0 15.2634 2.6181 18.7384 6.56102 20.7112L5.14157 25.8152C5.14157 25.8152 5.11528 26.0532 5.26774 26.1432C5.4202 26.2331 5.60421 26.1643 5.60421 26.1643C6.04581 26.1008 10.7037 22.8057 11.5186 22.2345C12.3229 22.3509 13.1588 22.409 14.0053 22.409C21.7334 22.409 28 17.4373 28 11.3019C28 5.16651 21.7229 0.189453 13.9947 0.189453Z" fill="#242424"/>
<path d="M6.25593 15.1692C5.80906 15.1692 5.44632 14.8201 5.44632 14.3917V9.56273H4.18458C3.74823 9.56273 3.396 9.20836 3.396 8.76936C3.396 8.33036 3.75349 7.97599 4.18458 7.97599H8.32202C8.75837 7.97599 9.1106 8.33036 9.1106 8.76936C9.1106 9.20836 8.75311 9.56273 8.32202 9.56273H7.06028V14.3917C7.06028 14.8148 6.69228 15.1692 6.25067 15.1692H6.25593ZM13.3374 15.1586C13.001 15.1586 12.7433 15.0211 12.6645 14.799L12.2649 13.7411H9.80456L9.40501 14.799C9.32615 15.0211 9.06855 15.1586 8.73208 15.1586C8.55334 15.1586 8.37985 15.1216 8.21687 15.0528C7.99607 14.9471 7.78052 14.6667 8.02761 13.8998L9.95702 8.78523C10.0937 8.39383 10.509 7.99186 11.0347 7.98128C11.5605 7.9707 11.981 8.39383 12.1125 8.78523L14.0419 13.8998C14.289 14.6667 14.0734 14.9576 13.8526 15.0528C13.6949 15.1269 13.5162 15.1586 13.3374 15.1586ZM11.8391 12.3025L11.0347 9.99644L10.2304 12.3025H11.8391ZM15.3404 15.0528C14.9198 15.0528 14.5676 14.7196 14.5676 14.3124V8.78523C14.5676 8.33565 14.9356 7.9707 15.393 7.9707C15.8504 7.9707 16.2184 8.34094 16.2184 8.78523V13.556H17.9322C18.3528 13.556 18.705 13.8892 18.705 14.2965C18.705 14.7038 18.3581 15.037 17.9322 15.037L15.3404 15.0528ZM19.0152 14.3441V8.79052C19.0152 8.34094 19.3832 7.97599 19.8248 7.97599C20.2664 7.97599 20.6344 8.34623 20.6344 8.79052V10.5359L22.8951 8.2616C23.1439 8.01125 23.6143 8.0332 23.8992 8.31979C24.1668 8.58899 24.2363 9.04403 23.957 9.33001L22.1065 11.1812L24.0937 13.8258C24.3607 14.1696 24.2959 14.7052 23.936 14.9576C23.5811 15.2221 23.0598 15.1339 22.8057 14.799L20.9131 12.276L20.6344 12.5564V14.3282C20.6344 15.3836 19.0152 15.4243 19.0152 14.3441Z" fill="#FFE812"/>
</svg>
