<svg width="50" height="24" viewBox="0 0 50 24" fill="none" xmlns="http://www.w3.org/2000/svg">
<path d="M13.8158 11.604H5.80143C2.59739 11.604 0 9.00656 0 5.80251C0 2.59846 2.59738 0.00107079 5.80142 0.00107079H13.8925C19.3664 0.00107079 23.8038 4.43852 23.8038 9.91239V16.4056C23.8038 20.5582 20.4375 23.9245 16.2849 23.9245H5.74162C2.57061 23.9245 0 21.3539 0 18.1829C0 15.0119 2.5706 12.4413 5.74161 12.4413H13.8158C14.047 12.4413 14.2344 12.2538 14.2344 12.0226C14.2344 11.7914 14.047 11.604 13.8158 11.604Z" fill="#262528"/>
<path d="M26.1962 7.51894C26.1962 3.36634 29.5625 0 33.7151 0H40.0887C45.5626 0 50 4.43745 50 9.91132V16.4045C50 20.5571 46.6337 23.9235 42.4811 23.9235H33.7151C29.5625 23.9235 26.1962 20.5571 26.1962 16.4045V7.51894Z" fill="#262528"/>
</svg>
