<svg width="32" height="32" viewBox="0 0 32 32" fill="none" xmlns="http://www.w3.org/2000/svg">
<rect width="32" height="32" rx="16" fill="#A0C3D2"/>
<path d="M23.5394 26.202C22.0461 26.202 21.0306 25.7988 20.493 24.9924C19.9554 24.186 19.6866 23.2452 19.6866 22.17C19.6866 21.3636 19.7762 20.5721 19.9554 19.7956C20.1346 18.9892 20.3287 18.2873 20.5378 17.69C20.7469 17.0628 20.8813 16.6297 20.941 16.3908C21.2695 15.4052 21.6578 14.4196 22.1058 13.434C22.1673 13.3071 22.2262 13.1828 22.2823 13.0614C22.5849 12.406 22.0326 12.085 21.613 12.6724C21.0157 13.4788 20.3586 14.4196 19.6418 15.4948C18.9549 16.57 18.2978 17.69 17.6706 18.8548C17.0733 19.9897 16.5655 21.0649 16.1474 22.0804C15.7591 23.0959 15.565 23.9321 15.565 24.5892C15.565 24.6545 15.5672 24.7175 15.5715 24.7784C15.6014 25.1955 15.4241 25.7114 15.0274 25.8436C14.7586 25.9033 14.4898 25.9332 14.221 25.9332C13.1757 25.9332 12.4439 25.6495 12.0258 25.082C11.6375 24.5145 11.4434 23.8276 11.4434 23.0212C11.4434 22.0356 11.6226 20.9903 11.981 19.8852C12.3693 18.7801 12.7127 17.8841 13.0114 17.1972C13.2503 16.6596 13.549 15.9428 13.9074 15.0468C14.2957 14.1508 14.6839 13.2697 15.0722 12.4036C15.0778 12.3915 15.0835 12.3794 15.0891 12.3674C15.2445 12.0352 14.8569 11.7618 14.6242 12.0452C13.9671 12.8815 13.2354 13.8671 12.429 15.002C11.6226 16.1369 10.8461 17.3167 10.0994 18.5412C9.35273 19.7359 8.74046 20.8708 8.2626 21.946C7.78473 23.0212 7.54579 23.9172 7.54579 24.634C7.54579 25.1119 7.65033 25.4553 7.8594 25.6644C7.949 25.754 7.99379 25.8287 7.99379 25.8884C7.99379 26.0377 7.82953 26.0825 7.501 26.0228C6.81406 25.9033 6.14206 25.7839 5.485 25.6644C4.82793 25.5151 4.2754 25.2313 3.8274 24.8132C3.40926 24.3652 3.2002 23.6335 3.2002 22.618C3.2002 21.8116 3.40926 20.8409 3.8274 19.706C4.24553 18.5412 4.73833 17.3465 5.3058 16.122C5.87326 14.8975 6.36606 13.7625 6.7842 12.7172C6.8738 12.4783 7.02313 12.1199 7.2322 11.642C7.44126 11.1343 7.65033 10.6116 7.8594 10.074C8.09833 9.50652 8.27753 9.01372 8.397 8.59559C8.51646 8.14759 8.54633 7.84893 8.4866 7.69959C8.42686 7.58012 8.397 7.49053 8.397 7.43079C8.397 7.07239 8.63593 6.89319 9.1138 6.89319C9.59166 6.89319 10.0695 6.96786 10.5474 7.11719C11.0551 7.23666 11.5031 7.44572 11.8914 7.74439C12.3095 8.04306 12.6381 8.40146 12.877 8.81959C13.1159 9.23772 13.2354 9.70066 13.2354 10.2084C13.2354 10.5369 13.1607 10.9252 13.0114 11.3732C12.9218 11.642 12.7426 12.0153 12.4738 12.4932C12.2349 12.9412 11.9959 13.3892 11.757 13.8372C11.6531 14.0449 11.8175 14.1288 11.9492 13.9375C12.2706 13.4706 12.6097 12.9743 12.9666 12.4484C13.5639 11.6121 14.1314 10.8207 14.669 10.074C15.2365 9.29746 15.7293 8.64039 16.1474 8.10279C16.5954 7.53532 16.9239 7.17692 17.133 7.02759C17.4615 6.78866 17.8498 6.66919 18.2978 6.66919C18.925 6.66919 19.6119 6.84839 20.3586 7.20679C20.8663 7.41586 21.2098 7.69959 21.389 8.05799C21.5981 8.38652 21.7026 8.75986 21.7026 9.17799C21.7026 9.77532 21.5383 10.4025 21.2098 11.0596C20.9111 11.6868 20.6274 12.2543 20.3586 12.762C20.9559 11.9257 21.5533 11.0895 22.1506 10.2532C22.7778 9.41692 23.3453 8.67026 23.853 8.01319C24.3906 7.35612 24.8237 6.90812 25.1522 6.66919C25.3911 6.48999 25.7794 6.40039 26.317 6.40039C26.9442 6.40039 27.5863 6.59453 28.2434 6.98279C28.9005 7.37106 29.229 8.07292 29.229 9.08839C29.229 9.47666 29.1543 9.92466 29.005 10.4324C28.8557 10.9401 28.6167 11.5076 28.2882 12.1348C27.0039 14.5839 26.0183 16.794 25.3314 18.7652C24.6445 20.7065 24.301 22.1401 24.301 23.066C24.301 23.7231 24.4802 24.0516 24.8386 24.0516C25.2567 24.0516 25.7197 23.7828 26.2274 23.2452C26.765 22.7076 27.2877 22.0655 27.7954 21.3188C28.4525 20.3631 29.0498 19.3476 29.5874 18.2724C30.1549 17.1972 30.5431 16.4505 30.7522 16.0324C30.8418 15.8532 30.9762 15.7636 31.1554 15.7636C31.5598 15.7636 31.9144 16.2566 31.769 16.634C31.7601 16.6571 31.7497 16.6806 31.7378 16.7044C31.5287 17.1225 31.2151 17.7049 30.797 18.4516C30.4087 19.1684 29.9607 19.9599 29.453 20.826C28.9453 21.6623 28.3927 22.4687 27.7954 23.2452C27.1383 24.0815 26.4514 24.7833 25.7346 25.3508C25.0178 25.9183 24.2861 26.202 23.5394 26.202Z" fill="white"/>
</svg>
