<svg width="50" height="24" viewBox="0 0 50 24" fill="none" xmlns="http://www.w3.org/2000/svg">
<path d="M13.8158 11.6415H5.80143C2.59739 11.6415 0 9.04416 0 5.84011C0 2.63606 2.59738 0.0386684 5.80142 0.0386684H13.8925C19.3664 0.0386684 23.8038 4.47612 23.8038 9.94999V16.4432C23.8038 20.5958 20.4375 23.9621 16.2849 23.9621H5.74162C2.57061 23.9621 0 21.3915 0 18.2205C0 15.0495 2.57061 12.4789 5.74161 12.4789H13.8158C14.047 12.4789 14.2344 12.2914 14.2344 12.0602C14.2344 11.829 14.047 11.6415 13.8158 11.6415Z" fill="#262528"/>
<path d="M26.1962 7.55653C26.1962 3.40394 29.5625 0.0375977 33.7151 0.0375977H40.0887C45.5626 0.0375977 50 4.47505 50 9.94892V16.4421C50 20.5947 46.6337 23.9611 42.4811 23.9611H33.7151C29.5625 23.9611 26.1962 20.5947 26.1962 16.4421V7.55653Z" fill="#262528"/>
</svg>
