<svg width="24" height="24" viewBox="0 0 24 24" fill="none" xmlns="http://www.w3.org/2000/svg">
<path d="M12.1061 8.46763L10.9772 9.60169C11.5374 9.64649 12.0085 9.75009 12.3905 9.9125C12.7723 10.0749 13.1019 10.2933 13.3792 10.5677C13.8715 11.0606 14.1997 11.6024 14.3638 12.1932C14.5279 12.784 14.5293 13.3734 14.368 13.9615C14.2067 14.5495 13.88 15.0871 13.3877 15.5744L10.6123 18.3129C10.12 18.8001 9.57679 19.1249 8.98266 19.2873C8.38853 19.4497 7.79299 19.4511 7.19604 19.2916C6.59908 19.132 6.05447 18.8085 5.56219 18.3213C5.06991 17.8285 4.74172 17.2866 4.57763 16.6958C4.41354 16.105 4.41354 15.5156 4.57763 14.9276C4.74172 14.3395 5.06991 13.8019 5.56219 13.3147L7.22574 11.6682C7.10692 11.405 7.03194 11.1236 7.00082 10.8239C6.9697 10.5243 6.97677 10.2373 7.02204 9.9629L4.5267 12.4242C3.85336 13.0963 3.4021 13.8383 3.17294 14.6503C2.94378 15.4624 2.94236 16.2758 3.1687 17.0906C3.39503 17.9055 3.85053 18.6517 4.5352 19.3294C5.22551 20.0126 5.98232 20.4662 6.80561 20.6902C7.6289 20.9142 8.45078 20.9128 9.27124 20.686C10.0917 20.4592 10.8386 20.0126 11.512 19.3462L14.4147 16.4648C15.0937 15.7928 15.5478 15.0508 15.7769 14.2387C16.0061 13.4267 16.0075 12.6133 15.7812 11.7984C15.5548 10.9836 15.0965 10.2373 14.4062 9.55968C14.1403 9.29087 13.8262 9.06546 13.4641 8.88345C13.1019 8.70144 12.6493 8.56283 12.1061 8.46763ZM11.8939 15.3896L13.0227 14.2555C12.4626 14.2107 11.9915 14.1071 11.6096 13.9447C11.2276 13.7823 10.898 13.5639 10.6208 13.2895C10.1228 12.7966 9.79181 12.2548 9.62772 11.664C9.46363 11.0732 9.46363 10.4837 9.62772 9.8957C9.79181 9.30767 10.12 8.77004 10.6123 8.28282L13.3792 5.54428C13.8771 5.05706 14.4232 4.73224 15.0173 4.56984C15.6114 4.40743 16.2056 4.40603 16.7997 4.56564C17.3938 4.72525 17.9399 5.05146 18.4378 5.54428C18.9301 6.03151 19.2583 6.57053 19.4224 7.16136C19.5865 7.75219 19.5865 8.34162 19.4224 8.92965C19.2583 9.51768 18.9301 10.0553 18.4378 10.5425L16.7742 12.189C16.8931 12.4578 16.968 12.7406 16.9992 13.0374C17.0303 13.3343 17.0232 13.6199 16.978 13.8943L19.4733 11.433C20.1466 10.7609 20.5979 10.0189 20.827 9.20686C21.0562 8.39483 21.0576 7.58139 20.8313 6.76654C20.6049 5.9517 20.1494 5.20547 19.4648 4.52783C18.7745 3.8446 18.0177 3.39098 17.1944 3.16696C16.3711 2.94295 15.5492 2.94435 14.7287 3.17117C13.9083 3.39798 13.1586 3.8474 12.4795 4.51944L9.58528 7.39238C8.90628 8.06441 8.45219 8.80644 8.22303 9.61849C7.99386 10.4305 7.99245 11.244 8.21879 12.0588C8.44512 12.8736 8.90345 13.6199 9.59377 14.2976C9.85971 14.5663 10.1737 14.7917 10.5359 14.9738C10.898 15.1558 11.3507 15.2944 11.8939 15.3896Z" fill="black"/>
</svg>
