<svg width="51" height="24" viewBox="0 0 51 24" fill="none" xmlns="http://www.w3.org/2000/svg">
<path d="M0 6.36V5.28C0 2.36394 2.36394 0 5.28 0H16.92C20.7639 0 23.88 3.1161 23.88 6.96V18.72C23.88 21.6361 21.5161 24 18.6 24H5.28C2.36394 24 0 21.6361 0 18.72V17.76C0 14.8439 2.36394 12.48 5.28 12.48H13.86C14.092 12.48 14.28 12.292 14.28 12.06C14.28 11.828 14.092 11.64 13.86 11.64H5.28C2.36394 11.64 0 9.27607 0 6.36Z" fill="#262528"/>
<path d="M26.2812 11.64V5.28C26.2812 2.36394 28.6452 0 31.5612 0H43.2013C47.0452 0 50.1612 3.1161 50.1612 6.96V18.72C50.1612 21.6361 47.7973 24 44.8813 24H31.5612C28.6452 24 26.2812 21.6361 26.2812 18.72V12.48V11.64Z" fill="#262528"/>
</svg>
