<svg width="22" height="22" viewBox="0 0 22 22" fill="none" xmlns="http://www.w3.org/2000/svg">
<path d="M13.1678 0.333008C13.3333 0.333013 13.4946 0.384214 13.6283 0.479236C13.7621 0.574259 13.8614 0.7082 13.9121 0.86177L14.7587 3.42542C14.7672 3.45132 14.786 3.47257 14.8105 3.48442C15.1451 3.64584 15.4662 3.82578 15.7738 4.02668C15.7962 4.04128 15.8234 4.04649 15.8495 4.04101L18.5544 3.47358C18.7163 3.4399 18.8849 3.45716 19.0361 3.52288C19.1873 3.5886 19.3132 3.69939 19.3956 3.83929L21.5627 7.49491C21.6455 7.63473 21.6805 7.79655 21.6628 7.95704C21.6451 8.11752 21.5756 8.26838 21.4642 8.38786L19.6097 10.3827C19.5908 10.403 19.5812 10.4302 19.583 10.4579C19.6066 10.8177 19.6066 11.1786 19.583 11.5385C19.5812 11.5661 19.5908 11.5933 19.6096 11.6136L21.4642 13.6115C21.5756 13.731 21.6451 13.8818 21.6628 14.0423C21.6805 14.2028 21.6455 14.3646 21.5627 14.5044L19.3956 18.1616C19.3129 18.3012 19.187 18.4117 19.0358 18.4771C18.8847 18.5426 18.7161 18.5596 18.5544 18.5258L15.8495 17.9583C15.8234 17.9528 15.7962 17.958 15.7739 17.9726C15.4676 18.1722 15.1453 18.3534 14.812 18.5149C14.7875 18.5268 14.7688 18.548 14.7602 18.5738L13.9121 21.1376C13.8614 21.2911 13.7621 21.4251 13.6283 21.5201C13.4946 21.6151 13.3333 21.6663 13.1678 21.6663H8.83351C8.66799 21.6663 8.50674 21.6151 8.37299 21.5201C8.23924 21.4251 8.13988 21.2911 8.08924 21.1376L7.2442 18.5755C7.23566 18.5496 7.21688 18.5283 7.1923 18.5164C6.85838 18.3553 6.53556 18.1731 6.22591 17.9711C6.20355 17.9565 6.17634 17.9513 6.15022 17.9568L3.44692 18.5258C3.28504 18.5595 3.11636 18.5422 2.96518 18.4765C2.81401 18.4107 2.68814 18.3 2.60571 18.1601L0.438566 14.5044C0.355812 14.3646 0.32076 14.2028 0.338464 14.0423C0.356169 13.8818 0.425714 13.731 0.537073 13.6115L2.3917 11.6136C2.41052 11.5933 2.42007 11.5661 2.41827 11.5385C2.39489 11.1796 2.39489 10.8197 2.41827 10.4609C2.42007 10.4332 2.41052 10.4061 2.3917 10.3858L0.537073 8.38786C0.425714 8.26838 0.356169 8.11752 0.338464 7.95704C0.32076 7.79655 0.355812 7.63473 0.438566 7.49491L2.60571 3.83777C2.68837 3.69815 2.81433 3.58767 2.96549 3.52223C3.11664 3.45679 3.2852 3.43976 3.44692 3.47358L6.15029 4.04253C6.17637 4.04802 6.20354 4.04285 6.22587 4.02832C6.53499 3.82717 6.85756 3.64455 7.19234 3.4829C7.21689 3.47104 7.23566 3.4498 7.24421 3.42391L8.0908 0.86177C8.14128 0.708695 8.24017 0.575108 8.37329 0.480132C8.50642 0.385155 8.66696 0.333656 8.83194 0.333008H13.1662H13.1678ZM12.5955 1.85682H9.4781C9.43494 1.85682 9.39665 1.88451 9.38313 1.92549L8.53105 4.50878C8.5225 4.53472 8.50371 4.55603 8.47905 4.56776L7.9188 4.83434C7.62441 4.97474 7.34021 5.13461 7.06821 5.31282L6.54954 5.65551C6.52724 5.67024 6.49998 5.67544 6.47383 5.66993L3.74534 5.09595C3.70341 5.08713 3.66053 5.106 3.6387 5.14287L2.11835 7.71108C2.0958 7.74917 2.10098 7.79755 2.13107 7.83001L3.99747 9.84323C4.01631 9.86356 4.02588 9.8908 4.02387 9.91845L3.98011 10.5212C3.95764 10.8398 3.95764 11.1595 3.98011 11.4782L4.02387 12.0808C4.02588 12.1085 4.01629 12.1358 3.99741 12.1561L2.12805 14.1693C2.0979 14.2018 2.09271 14.2502 2.1153 14.2883L3.63715 16.8566C3.65897 16.8934 3.70182 16.9122 3.74371 16.9034L6.4724 16.3309C6.49847 16.3254 6.52565 16.3306 6.5479 16.3452L7.06665 16.6865C7.33865 16.8647 7.62284 17.0246 7.91724 17.165L8.47752 17.4316C8.50216 17.4433 8.52094 17.4646 8.5295 17.4905L9.38311 20.0739C9.39664 20.1149 9.43492 20.1425 9.47806 20.1425H12.5264C12.5695 20.1425 12.6078 20.1149 12.6213 20.0739L13.4765 17.489C13.485 17.4631 13.5039 17.4418 13.5285 17.4301L14.0872 17.165C14.3813 17.0249 14.665 16.8651 14.9362 16.6865L15.4534 16.3453C15.4756 16.3306 15.5029 16.3254 15.529 16.3309L18.2591 16.9034C18.301 16.9122 18.3439 16.8934 18.3657 16.8565L19.8861 14.2883C19.9086 14.2502 19.9034 14.2018 19.8733 14.1693L18.0054 12.1561C17.9866 12.1358 17.977 12.1085 17.979 12.0809L18.0228 11.4782C18.0453 11.159 18.0453 10.8388 18.0228 10.5197L17.979 9.917C17.977 9.88931 17.9866 9.86203 18.0055 9.84169L19.8748 7.83004C19.9049 7.79758 19.9101 7.74912 19.8875 7.71099L18.3657 5.14275C18.3439 5.10594 18.3011 5.08709 18.2592 5.09585L15.5288 5.66698C15.5028 5.67242 15.4757 5.66727 15.4534 5.65267L14.9362 5.31282C14.665 5.13425 14.3813 4.97437 14.0872 4.83434L13.5285 4.56923C13.5038 4.55753 13.485 4.53626 13.4765 4.51035L12.5976 1.8583C12.5973 1.85742 12.5964 1.85682 12.5955 1.85682V1.85682ZM11.0006 6.42825C12.2447 6.42825 13.4378 6.90988 14.3175 7.76719C15.1972 8.6245 15.6914 9.78726 15.6914 10.9997C15.6914 12.2121 15.1972 13.3749 14.3175 14.2322C13.4378 15.0895 12.2447 15.5711 11.0006 15.5711C9.75658 15.5711 8.56346 15.0895 7.68376 14.2322C6.80407 13.3749 6.30987 12.2121 6.30987 10.9997C6.30987 9.78726 6.80407 8.6245 7.68376 7.76719C8.56346 6.90988 9.75658 6.42825 11.0006 6.42825ZM11.0006 7.95206C10.1713 7.95206 9.37585 8.27314 8.78939 8.84468C8.20293 9.41622 7.87346 10.1914 7.87346 10.9997C7.87346 11.808 8.20293 12.5831 8.78939 13.1547C9.37585 13.7262 10.1713 14.0473 11.0006 14.0473C11.83 14.0473 12.6254 13.7262 13.2119 13.1547C13.7984 12.5831 14.1278 11.808 14.1278 10.9997C14.1278 10.1914 13.7984 9.41622 13.2119 8.84468C12.6254 8.27314 11.83 7.95206 11.0006 7.95206Z" fill="black"/>
</svg>
