<svg width="32" height="33" viewBox="0 0 32 33" fill="none" xmlns="http://www.w3.org/2000/svg">
<path d="M16.1414 11.4796L14.6363 12.9917C15.3832 13.0514 16.0113 13.1896 16.5206 13.4061C17.0298 13.6227 17.4692 13.9139 17.8389 14.2798C18.4953 14.9369 18.9329 15.6593 19.1517 16.4471C19.3705 17.2348 19.3724 18.0207 19.1573 18.8048C18.9423 19.5888 18.5066 20.3056 17.8502 20.9553L14.1497 24.6067C13.4933 25.2563 12.7691 25.6894 11.9769 25.9059C11.1847 26.1224 10.3907 26.1243 9.59472 25.9115C8.79878 25.6987 8.07262 25.2675 7.41625 24.6179C6.75988 23.9608 6.3223 23.2383 6.1035 22.4505C5.88471 21.6628 5.88471 20.8769 6.1035 20.0929C6.3223 19.3088 6.75988 18.592 7.41625 17.9424L9.63433 15.747C9.47589 15.3961 9.37592 15.0209 9.33443 14.6214C9.29294 14.2219 9.30237 13.8392 9.36272 13.4733L6.03561 16.7551C5.13781 17.6511 4.53614 18.6405 4.23059 19.7232C3.92504 20.8059 3.92315 21.8905 4.22493 22.977C4.52671 24.0634 5.13404 25.0584 6.04693 25.962C6.96735 26.873 7.97642 27.4778 9.07415 27.7764C10.1719 28.0751 11.2677 28.0732 12.3616 27.7708C13.4556 27.4684 14.4515 26.8729 15.3493 25.9844L19.2196 22.1426C20.1249 21.2465 20.7303 20.2571 21.0359 19.1744C21.3414 18.0917 21.3433 17.0071 21.0416 15.9207C20.7398 14.8342 20.1287 13.8392 19.2083 12.9357C18.8537 12.5773 18.435 12.2767 17.9521 12.0341C17.4693 11.7914 16.8657 11.6066 16.1414 11.4796ZM15.8586 20.7089L17.3637 19.1968C16.6167 19.1371 15.9887 18.9989 15.4794 18.7824C14.9702 18.5658 14.5307 18.2746 14.161 17.9088C13.4971 17.2517 13.0557 16.5292 12.837 15.7414C12.6182 14.9537 12.6182 14.1678 12.837 13.3837C13.0557 12.5997 13.4933 11.8828 14.1497 11.2332L17.8389 7.58183C18.5028 6.9322 19.2309 6.49911 20.0231 6.28257C20.8152 6.06603 21.6074 6.06416 22.3996 6.27697C23.1918 6.48978 23.9198 6.92473 24.5838 7.58183C25.2401 8.23146 25.6777 8.95016 25.8965 9.73793C26.1153 10.5257 26.1153 11.3116 25.8965 12.0957C25.6777 12.8797 25.2401 13.5965 24.5838 14.2462L22.3656 16.4415C22.5241 16.7999 22.6241 17.1769 22.6655 17.5727C22.707 17.9685 22.6976 18.3493 22.6373 18.7152L25.9644 15.4334C26.8622 14.5374 27.4638 13.548 27.7694 12.4653C28.0749 11.3826 28.0768 10.298 27.7751 9.21151C27.4732 8.12506 26.8659 7.13007 25.953 6.22656C25.0326 5.31558 24.0235 4.71075 22.9258 4.41207C21.8281 4.11339 20.7323 4.11526 19.6383 4.41767C18.5444 4.72009 17.5447 5.31932 16.6394 6.21537L12.7804 10.046C11.875 10.942 11.2696 11.9314 10.964 13.0141C10.6585 14.0968 10.6566 15.1814 10.9584 16.2678C11.2602 17.3543 11.8713 18.3493 12.7917 19.2529C13.1463 19.6112 13.565 19.9118 14.0478 20.1545C14.5307 20.3972 15.1343 20.582 15.8586 20.7089Z" fill="#242424"/>
</svg>
