<svg width="28" height="27" viewBox="0 0 28 27" fill="none" xmlns="http://www.w3.org/2000/svg">
<path d="M12.2337 1.89232C12.9282 0.3839 15.0718 0.3839 15.7663 1.89232L18.3703 7.5488C18.658 8.17372 19.2545 8.6001 19.9389 8.67005L26.1886 9.30873C27.8805 9.48163 28.5508 11.59 27.2694 12.7082L22.6897 16.7043C22.1549 17.171 21.9168 17.8921 22.0687 18.5855L23.3618 24.4882C23.7205 26.1256 21.9778 27.4193 20.5143 26.602L14.9481 23.4935C14.3589 23.1644 13.6411 23.1644 13.0519 23.4935L7.48569 26.602C6.02222 27.4193 4.27954 26.1256 4.63822 24.4882L5.93126 18.5855C6.08315 17.8921 5.84512 17.171 5.31027 16.7043L0.730641 12.7082C-0.550807 11.59 0.11948 9.48163 1.81138 9.30873L8.06111 8.67005C8.7455 8.6001 9.342 8.17372 9.62969 7.5488L12.2337 1.89232Z" fill="#F7CF46"/>
</svg>
