<svg width="40" height="40" viewBox="0 0 40 40" fill="none" xmlns="http://www.w3.org/2000/svg">
<rect width="40" height="40" rx="10" fill="#E1E1E7"/>
<path d="M15.5495 29.7955C12.8729 29.7981 10.2521 29.0193 8 27.5521C8.39011 27.598 8.78253 27.6207 9.17526 27.6201C11.3928 27.6237 13.5471 26.871 15.2919 25.4828C14.2641 25.4629 13.2681 25.1177 12.4431 24.4955C11.6182 23.8732 11.0055 23.0051 10.6908 22.0123C10.9958 22.0722 11.3057 22.1024 11.6163 22.1026C12.0549 22.1026 12.4916 22.0435 12.9149 21.9268C11.8 21.6984 10.7974 21.0858 10.0771 20.193C9.35682 19.3001 8.96318 18.182 8.963 17.0283C8.963 17.0061 8.963 16.9855 8.963 16.965C9.6466 17.351 10.4113 17.5654 11.1933 17.5903C10.1506 16.8837 9.41262 15.8004 9.12987 14.561C8.84712 13.3217 9.04085 12.0196 9.67159 10.9202C10.9072 12.4637 12.4488 13.7264 14.1966 14.6265C15.9443 15.5266 17.8591 16.0439 19.8166 16.1448C19.5674 15.0721 19.6747 13.9459 20.1218 12.9415C20.5688 11.937 21.3307 11.1106 22.2887 10.5908C23.2468 10.071 24.3473 9.88702 25.4191 10.0674C26.4909 10.2478 27.4739 10.7825 28.2151 11.5883C29.3159 11.3663 30.3714 10.9562 31.3367 10.3755C30.9689 11.5325 30.1997 12.5148 29.1719 13.1398C30.1482 13.0202 31.1014 12.7533 32 12.3482C31.3385 13.3518 30.5061 14.2278 29.5418 14.9352C29.5527 15.149 29.5574 15.3643 29.5574 15.5812C29.5574 22.1817 24.6019 29.7955 15.5432 29.7955" fill="white"/>
</svg>
