<svg width="24" height="25" viewBox="0 0 24 25" fill="none" xmlns="http://www.w3.org/2000/svg">
<g clip-path="url(#clip0_606_83544)">
<path d="M22.0875 11.6882L20.2275 9.56821L20.4875 6.75821C20.5375 6.25821 20.1975 5.79821 19.7175 5.68821L16.9575 5.05821L15.5175 2.62821C15.2575 2.19821 14.7275 2.01821 14.2675 2.21821L11.6675 3.34821L9.0775 2.23821C8.6175 2.03821 8.0775 2.21821 7.8275 2.64821L6.3775 5.06821L3.6275 5.68821C3.1375 5.79821 2.7975 6.24821 2.8475 6.75821L3.1075 9.55821L1.2475 11.6882C0.9175 12.0682 0.9175 12.6282 1.2475 13.0082L3.1075 15.1282L2.8475 17.9482C2.7975 18.4482 3.1375 18.9082 3.6175 19.0182L6.3775 19.6482L7.8175 22.0682C8.0775 22.4982 8.6075 22.6782 9.0775 22.4782L11.6675 21.3482L14.2575 22.4582C14.7175 22.6582 15.2575 22.4782 15.5075 22.0482L16.9475 19.6182L19.7075 18.9882C20.1975 18.8782 20.5275 18.4182 20.4775 17.9182L20.2175 15.1082L22.0775 12.9882C22.4175 12.6282 22.4175 12.0682 22.0875 11.6882ZM12.6675 17.3482H10.6675V15.3482H12.6675V17.3482ZM11.6675 13.3482C11.1175 13.3482 10.6675 12.8982 10.6675 12.3482V8.34821C10.6675 7.79821 11.1175 7.34821 11.6675 7.34821C12.2175 7.34821 12.6675 7.79821 12.6675 8.34821V12.3482C12.6675 12.8982 12.2175 13.3482 11.6675 13.3482Z" fill="#383838"/>
</g>
<defs>
<clipPath id="clip0_606_83544">
<rect width="24" height="24" fill="white" transform="translate(0 0.136719)"/>
</clipPath>
</defs>
</svg>
