<svg width="28" height="26" viewBox="0 0 28 26" fill="none" xmlns="http://www.w3.org/2000/svg">
<path d="M13.9947 0C6.26662 0 0 4.97177 0 11.1072C0 15.074 2.6181 18.5489 6.56102 20.5218L5.14157 25.6258C5.14157 25.6258 5.11528 25.8638 5.26774 25.9537C5.4202 26.0436 5.60421 25.9749 5.60421 25.9749C6.04581 25.9114 10.7037 22.6163 11.5186 22.045C12.3229 22.1614 13.1588 22.2196 14.0053 22.2196C21.7334 22.2196 28 17.2478 28 11.1124C28 4.97706 21.7229 0 13.9947 0Z" fill="white"/>
<path d="M6.25446 14.9797C5.8076 14.9797 5.44485 14.6307 5.44485 14.2022V9.37328H4.18312C3.74677 9.37328 3.39453 9.0189 3.39453 8.57991C3.39453 8.14091 3.75202 7.78654 4.18312 7.78654H8.32055C8.7569 7.78654 9.10914 8.14091 9.10914 8.57991C9.10914 9.0189 8.75165 9.37328 8.32055 9.37328H7.05882V14.2022C7.05882 14.6254 6.69081 14.9797 6.24921 14.9797H6.25446ZM13.3359 14.9692C12.9995 14.9692 12.7419 14.8316 12.663 14.6095L12.2635 13.5517H9.80309L9.40354 14.6095C9.32469 14.8316 9.06708 14.9692 8.73062 14.9692C8.55187 14.9692 8.37838 14.9321 8.21541 14.8634C7.99461 14.7576 7.77906 14.4773 8.02615 13.7104L9.95555 8.59577C10.0922 8.20438 10.5076 7.80241 11.0333 7.79183C11.559 7.78125 11.9796 8.20438 12.111 8.59577L14.0404 13.7104C14.2875 14.4773 14.072 14.7682 13.8512 14.8634C13.6934 14.9374 13.5147 14.9692 13.3359 14.9692ZM11.8376 12.113L11.0333 9.80698L10.2289 12.113H11.8376ZM15.339 14.8634C14.9184 14.8634 14.5661 14.5302 14.5661 14.1229V8.59577C14.5661 8.1462 14.9341 7.78125 15.3915 7.78125C15.8489 7.78125 16.2169 8.15149 16.2169 8.59577V13.3666H17.9308C18.3513 13.3666 18.7036 13.6998 18.7036 14.107C18.7036 14.5143 18.3566 14.8475 17.9308 14.8475L15.339 14.8634ZM19.0138 14.1546V8.60106C19.0138 8.15149 19.3818 7.78654 19.8234 7.78654C20.265 7.78654 20.633 8.15678 20.633 8.60106V10.3465L22.8936 8.07215C23.1424 7.8218 23.6129 7.84375 23.8977 8.13033C24.1653 8.39954 24.2349 8.85458 23.9556 9.14055L22.105 10.9917L24.0922 13.6363C24.3593 13.9802 24.2945 14.5158 23.9345 14.7682C23.5797 15.0326 23.0583 14.9445 22.8042 14.6095L20.9116 12.0866L20.633 12.3669V14.1388C20.633 15.1942 19.0138 15.2348 19.0138 14.1546Z" fill="#262528"/>
</svg>
