<svg width="440" height="264" viewBox="0 0 440 264" fill="none" xmlns="http://www.w3.org/2000/svg">
<path d="M221.58 18.1934V22.5442C221.58 28 221.58 34.1809 219.957 43.6077L216.055 43.2279C217.816 34.3536 217.816 27.8619 217.816 22.5442V21.3702H191.677V18.1934H221.58ZM187.361 50.5829V47.3715H226.932V50.5829H187.361ZM265.774 16.3287V35.1823H245.401V16.3287H265.774ZM249.165 32.0746H262.011V19.5055H249.165V32.0746ZM250.719 56.384V40.8108H278.965V56.384H250.719ZM254.517 53.2417H275.201V43.884H254.517V53.2417ZM275.132 38.3936V13.6008H278.965V38.3936H275.132ZM306.087 16.3633C315.168 16.3978 321.971 21.1285 321.971 28.3108C321.971 35.5276 315.168 40.2583 306.087 40.2238C297.04 40.2583 290.237 35.5276 290.237 28.3108C290.237 21.1285 297.04 16.3978 306.087 16.3633ZM286.335 51.1699V47.9586H326.08V51.1699H286.335ZM293.897 28.3108C293.863 33.5594 299.112 37.0815 306.087 37.0815C313.062 37.0815 318.276 33.5594 318.276 28.3108C318.276 23.0967 313.062 19.471 306.087 19.5055C299.112 19.471 293.863 23.0967 293.897 28.3108ZM369.293 48.3384V51.5843H329.548V48.3384H347.4V40.1547H334.521V26.7569H360.487V19.9544H334.417V16.7776H364.286V29.8992H338.319V36.9779H365.287V40.1547H351.199V48.3384H369.293ZM24.6122 86.3287V105.182H4.23927V86.3287H24.6122ZM8.00309 102.075H20.8484V89.5055H8.00309V102.075ZM9.55695 126.384V110.811H37.8028V126.384H9.55695ZM13.3553 123.242H34.039V113.884H13.3553V123.242ZM33.9699 108.394V83.6008H37.8028V108.394H33.9699ZM64.9245 84.326C74.593 84.326 80.256 86.9848 80.256 91.8191C80.256 96.7224 74.593 99.3812 64.9245 99.4157C55.256 99.3812 49.5585 96.7224 49.5585 91.8191C49.5585 86.9848 55.256 84.326 64.9245 84.326ZM45.1732 105.459V102.351H84.745V105.459H45.1732ZM49.9729 112.157V109.222H79.6345V118.925H53.8403V123.449H80.9466V126.488H50.0765V116.094H75.8707V112.157H49.9729ZM53.564 91.8191C53.5295 94.8232 57.7422 96.4807 64.9245 96.4807C72.1414 96.4807 76.3541 94.8232 76.3541 91.8191C76.3541 88.953 72.1414 87.2265 64.9245 87.2265C57.7422 87.2265 53.5295 88.953 53.564 91.8191ZM115.748 92.6133C115.748 97.8273 120.099 102.593 126.522 104.492L124.726 107.427C119.702 105.925 115.817 102.696 113.901 98.5525C112.002 103.11 107.979 106.615 102.834 108.29L100.935 105.251C107.392 103.318 111.95 98.3453 111.95 92.6133V91.7845H102.143V88.6423H111.95V83.3591H115.817V88.6423H125.521V91.7845H115.748V92.6133ZM105.32 123.829C112.295 122.706 118.614 118.891 119.288 114.264H107.012V111.122H135.638V114.264H123.362C123.984 118.805 130.355 122.724 137.33 123.829L135.88 126.833C129.543 125.745 123.777 122.603 121.291 118.252C118.822 122.586 113.09 125.676 106.771 126.764L105.32 123.829ZM131.045 108.808V83.5663H134.878V94.3052H141.404V97.5166H134.878V108.808H131.045ZM178.954 87.9517V92.268C178.92 97.6202 178.92 103.559 177.331 112.296L173.464 111.847C175.087 103.559 175.087 97.482 175.122 92.268V91.1285H148.36V87.9517H178.954ZM144.148 120.825V117.613H159.652V102.109H163.45V117.613H183.72V120.825H144.148ZM219.523 110.983C228.846 110.983 234.751 113.919 234.785 118.96C234.751 123.932 228.846 126.867 219.523 126.867C210.234 126.867 204.329 123.932 204.329 118.96C204.329 113.919 210.234 110.983 219.523 110.983ZM199.944 106.943V103.801H216.311V95.4102H220.075V103.801H239.447V106.943H199.944ZM204.64 88.9185V85.7762H234.405V89.471C234.405 92.9586 234.405 96.4807 233.197 100.97L229.433 100.555C230.607 96.0663 230.607 92.855 230.607 89.471V88.9185H204.64ZM208.162 118.96C208.128 121.964 212.617 123.829 219.523 123.829C226.463 123.829 230.918 121.964 230.952 118.96C230.918 115.852 226.463 113.953 219.523 113.919C212.617 113.953 208.128 115.852 208.162 118.96ZM282.798 108.29V111.467H272.335V126.971H268.468V111.467H257.314V126.971H253.378V111.467H243.053V108.29H282.798ZM247.577 94.7887C247.577 88.9876 253.723 85.3273 262.839 85.2928C271.955 85.3273 278.136 88.9876 278.136 94.7887C278.136 100.555 271.955 104.181 262.839 104.146C253.723 104.181 247.577 100.555 247.577 94.7887ZM251.513 94.7887C251.479 98.6215 256.071 101.073 262.839 101.073C269.607 101.073 274.2 98.6215 274.2 94.7887C274.2 90.9213 269.607 88.4351 262.839 88.4351C256.071 88.4351 251.479 90.9213 251.513 94.7887ZM308.02 91.0594V94.2017H286.232V91.0594H295.244V84.8785H299.077V91.0594H308.02ZM287.82 106.978C287.786 101.211 291.722 97.1367 297.143 97.1367C302.599 97.1367 306.501 101.211 306.536 106.978C306.501 112.814 302.599 116.923 297.143 116.923C291.722 116.923 287.786 112.814 287.82 106.978ZM291.204 106.978C291.204 110.845 293.69 113.608 297.143 113.573C300.596 113.608 303.117 110.845 303.117 106.978C303.117 103.18 300.596 100.383 297.143 100.348C293.69 100.383 291.204 103.18 291.204 106.978ZM310.265 124.83V84.6022H313.891V101.867H319.657V83.5663H323.317V126.971H319.657V105.044H313.891V124.83H310.265ZM344.811 95.2376C344.811 103.076 349.852 110.983 356.171 113.884L353.858 116.992C348.92 114.454 344.845 109.257 342.911 103.093C340.995 109.585 336.92 115.144 331.965 117.786L329.514 114.713C335.867 111.57 340.909 103.214 340.943 95.2376V87.3301H344.811V95.2376ZM351.44 101.522V98.3798H361.73V83.5663H365.529V127.04H361.73V101.522H351.44ZM83.3945 156.898V161.111C83.3773 166.671 83.3773 172.921 81.6162 182.382L75.3317 181.726C77.0237 173.318 77.11 167.068 77.1445 161.854H50.9705V156.898H83.3945ZM46.7923 192.05V186.992H61.2951V171.712H67.476V186.992H87.331V192.05H46.7923ZM130.544 174.578V179.533H90.0052V174.578H107.115V170.624H94.9085V154.844H125.744V159.747H101.141V165.617H126.176V170.624H113.365V174.578H130.544ZM94.4942 187.51V182.606H125.71V197.627H119.563V187.51H94.4942ZM168.474 153.1V166.722H174.447V171.833H168.474V186.284H162.224V153.1H168.474ZM133.201 162.665V157.762H143.301V153.031H149.516V157.762H159.582V162.665H133.201ZM135.376 172.852C135.359 167.689 139.917 164.236 146.409 164.236C152.831 164.236 157.338 167.689 157.338 172.852C157.338 177.962 152.831 181.346 146.409 181.329C139.917 181.346 135.359 177.962 135.376 172.852ZM139.641 196.729V183.711H145.856V191.705H170.062V196.729H139.641ZM141.436 172.852C141.436 175.286 143.422 176.598 146.409 176.598C149.378 176.598 151.416 175.286 151.433 172.852C151.416 170.365 149.378 169.001 146.409 168.984C143.422 169.001 141.436 170.365 141.436 172.852ZM211.901 155.707V175.614H190.199V155.707H211.901ZM195.361 197.006V180.396H225.144V197.006H195.361ZM196.328 170.693H205.738V160.68H196.328V170.693ZM201.508 192.016H219.032V185.231H201.508V192.016ZM218.894 178.204V153.1H225.144V178.204H218.894ZM244.997 155.983V160.973H242.683C242.7 164.357 243.339 168.363 245.67 171.47C247.984 168.397 248.622 164.443 248.674 160.973H246.447V155.983H259.12V160.973H254.579C254.613 165.945 256.202 171.108 261.226 173.732L257.911 178.186C254.752 176.529 252.783 173.767 251.609 170.503C250.556 173.818 248.726 176.771 245.636 178.584C242.631 176.788 240.819 173.905 239.765 170.659C238.609 173.853 236.64 176.546 233.533 178.186L230.2 173.732C235.104 171.142 236.796 165.876 236.882 160.973H231.979V155.983H244.997ZM237.107 188.891C237.107 183.47 242.994 180.31 252.542 180.31C262.124 180.31 268.098 183.47 268.115 188.891C268.098 194.381 262.124 197.506 252.542 197.489C242.994 197.506 237.107 194.381 237.107 188.891ZM243.391 188.891C243.374 191.446 246.551 192.655 252.542 192.637C258.533 192.655 261.727 191.446 261.761 188.891C261.727 186.439 258.533 185.231 252.542 185.248C246.551 185.231 243.374 186.439 243.391 188.891ZM261.485 179.844V153.031H267.7V163.77H272.293V168.967H267.7V179.844H261.485ZM312.337 171.108V176.115H303.721V183.418C307.382 183.262 311.042 183.021 314.512 182.658L314.978 187.182C305.275 188.684 295.175 188.753 286.801 188.753L286.094 183.677C289.633 183.694 293.5 183.677 297.489 183.608V176.115H289.011V157.002H312.129V161.94H295.192V171.108H312.337ZM317.033 197.61V153.031H323.231V197.61H317.033ZM366.444 153.031V197.506H360.142V153.031H366.444ZM329.255 184.92C340.719 179.481 345.777 172.472 346.779 162.596H331.637V157.71H353.132C353.115 171.177 348.384 182.382 332.501 189.875L329.255 184.92Z" fill="#26252A"/>
<path d="M436.059 262C436.059 263.072 436.928 263.941 438 263.941C439.072 263.941 439.941 263.072 439.941 262C439.941 260.928 439.072 260.059 438 260.059C436.928 260.059 436.059 260.928 436.059 262ZM376.059 262C376.059 263.072 376.928 263.941 378 263.941C379.072 263.941 379.941 263.072 379.941 262C379.941 260.928 379.072 260.059 378 260.059C376.928 260.059 376.059 260.928 376.059 262ZM378 262.364L378.714 262.364L378.714 261.636L378 261.636L378 262.364ZM380.143 262.364L381.571 262.364L381.571 261.636L380.143 261.636L380.143 262.364ZM383 262.364L384.429 262.364L384.429 261.636L383 261.636L383 262.364ZM385.857 262.364L387.286 262.364L387.286 261.636L385.857 261.636L385.857 262.364ZM388.714 262.364L390.143 262.364L390.143 261.636L388.714 261.636L388.714 262.364ZM391.571 262.364L393 262.364L393 261.636L391.571 261.636L391.571 262.364ZM394.429 262.364L395.857 262.364L395.857 261.636L394.429 261.636L394.429 262.364ZM397.286 262.364L398.714 262.364L398.714 261.636L397.286 261.636L397.286 262.364ZM400.143 262.364L401.571 262.364L401.571 261.636L400.143 261.636L400.143 262.364ZM403 262.364L404.429 262.364L404.429 261.636L403 261.636L403 262.364ZM405.857 262.364L407.286 262.364L407.286 261.636L405.857 261.636L405.857 262.364ZM408.714 262.364L410.143 262.364L410.143 261.636L408.714 261.636L408.714 262.364ZM411.571 262.364L413 262.364L413 261.636L411.571 261.636L411.571 262.364ZM414.429 262.364L415.857 262.364L415.857 261.636L414.429 261.636L414.429 262.364ZM417.286 262.364L418.714 262.364L418.714 261.636L417.286 261.636L417.286 262.364ZM420.143 262.364L421.571 262.364L421.571 261.636L420.143 261.636L420.143 262.364ZM423 262.364L424.429 262.364L424.429 261.636L423 261.636L423 262.364ZM425.857 262.364L427.286 262.364L427.286 261.636L425.857 261.636L425.857 262.364ZM428.714 262.364L430.143 262.364L430.143 261.636L428.714 261.636L428.714 262.364ZM431.571 262.364L433 262.364L433 261.636L431.571 261.636L431.571 262.364ZM434.429 262.364L435.857 262.364L435.857 261.636L434.429 261.636L434.429 262.364ZM437.286 262.364L438 262.364L438 261.636L437.286 261.636L437.286 262.364Z" fill="#6D7BFF"/>
</svg>
