<svg width="840" height="478" viewBox="0 0 840 478" fill="none" xmlns="http://www.w3.org/2000/svg">
<path d="M621.58 128.193V132.544C621.58 138 621.58 144.181 619.957 153.608L616.055 153.228C617.816 144.354 617.816 137.862 617.816 132.544V131.37H591.677V128.193H621.58ZM587.361 160.583V157.372H626.932V160.583H587.361ZM665.774 126.329V145.182H645.401V126.329H665.774ZM649.165 142.075H662.011V129.506H649.165V142.075ZM650.719 166.384V150.811H678.965V166.384H650.719ZM654.517 163.242H675.201V153.884H654.517V163.242ZM675.132 148.394V123.601H678.965V148.394H675.132ZM706.087 126.363C715.168 126.398 721.971 131.128 721.971 138.311C721.971 145.528 715.168 150.258 706.087 150.224C697.04 150.258 690.237 145.528 690.237 138.311C690.237 131.128 697.04 126.398 706.087 126.363ZM686.335 161.17V157.959H726.08V161.17H686.335ZM693.897 138.311C693.863 143.559 699.112 147.081 706.087 147.081C713.062 147.081 718.276 143.559 718.276 138.311C718.276 133.097 713.062 129.471 706.087 129.506C699.112 129.471 693.863 133.097 693.897 138.311ZM769.293 158.338V161.584H729.548V158.338H747.4V150.155H734.521V136.757H760.487V129.954H734.417V126.778H764.286V139.899H738.319V146.978H765.287V150.155H751.199V158.338H769.293ZM424.612 196.329V215.182H404.239V196.329H424.612ZM408.003 212.075H420.848V199.506H408.003V212.075ZM409.557 236.384V220.811H437.803V236.384H409.557ZM413.355 233.242H434.039V223.884H413.355V233.242ZM433.97 218.394V193.601H437.803V218.394H433.97ZM464.925 194.326C474.593 194.326 480.256 196.985 480.256 201.819C480.256 206.722 474.593 209.381 464.925 209.416C455.256 209.381 449.559 206.722 449.559 201.819C449.559 196.985 455.256 194.326 464.925 194.326ZM445.173 215.459V212.351H484.745V215.459H445.173ZM449.973 222.157V219.222H479.634V228.925H453.84V233.449H480.947V236.488H450.076V226.094H475.871V222.157H449.973ZM453.564 201.819C453.53 204.823 457.742 206.481 464.925 206.481C472.141 206.481 476.354 204.823 476.354 201.819C476.354 198.953 472.141 197.227 464.925 197.227C457.742 197.227 453.53 198.953 453.564 201.819ZM515.748 202.613C515.748 207.827 520.099 212.593 526.522 214.492L524.726 217.427C519.702 215.925 515.817 212.696 513.901 208.552C512.002 213.11 507.979 216.615 502.834 218.29L500.935 215.251C507.392 213.318 511.95 208.345 511.95 202.613V201.785H502.143V198.642H511.95V193.359H515.817V198.642H525.521V201.785H515.748V202.613ZM505.32 233.829C512.295 232.706 518.614 228.891 519.288 224.264H507.012V221.122H535.638V224.264H523.362C523.984 228.805 530.355 232.724 537.33 233.829L535.88 236.833C529.543 235.745 523.777 232.603 521.291 228.252C518.822 232.586 513.09 235.676 506.771 236.764L505.32 233.829ZM531.045 218.808V193.566H534.878V204.305H541.404V207.517H534.878V218.808H531.045ZM578.954 197.952V202.268C578.92 207.62 578.92 213.559 577.331 222.296L573.464 221.847C575.087 213.559 575.087 207.482 575.122 202.268V201.128H548.36V197.952H578.954ZM544.148 230.825V227.613H559.652V212.109H563.45V227.613H583.72V230.825H544.148ZM619.523 220.983C628.846 220.983 634.751 223.919 634.785 228.96C634.751 233.932 628.846 236.867 619.523 236.867C610.234 236.867 604.329 233.932 604.329 228.96C604.329 223.919 610.234 220.983 619.523 220.983ZM599.944 216.943V213.801H616.311V205.41H620.075V213.801H639.447V216.943H599.944ZM604.64 198.919V195.776H634.405V199.471C634.405 202.959 634.405 206.481 633.197 210.97L629.433 210.555C630.607 206.066 630.607 202.855 630.607 199.471V198.919H604.64ZM608.162 228.96C608.128 231.964 612.617 233.829 619.523 233.829C626.463 233.829 630.918 231.964 630.952 228.96C630.918 225.852 626.463 223.953 619.523 223.919C612.617 223.953 608.128 225.852 608.162 228.96ZM682.798 218.29V221.467H672.335V236.971H668.468V221.467H657.314V236.971H653.378V221.467H643.053V218.29H682.798ZM647.577 204.789C647.577 198.988 653.723 195.327 662.839 195.293C671.955 195.327 678.136 198.988 678.136 204.789C678.136 210.555 671.955 214.181 662.839 214.146C653.723 214.181 647.577 210.555 647.577 204.789ZM651.513 204.789C651.479 208.622 656.071 211.073 662.839 211.073C669.607 211.073 674.2 208.622 674.2 204.789C674.2 200.921 669.607 198.435 662.839 198.435C656.071 198.435 651.479 200.921 651.513 204.789ZM708.02 201.059V204.202H686.232V201.059H695.244V194.878H699.077V201.059H708.02ZM687.82 216.978C687.786 211.211 691.722 207.137 697.143 207.137C702.599 207.137 706.501 211.211 706.536 216.978C706.501 222.814 702.599 226.923 697.143 226.923C691.722 226.923 687.786 222.814 687.82 216.978ZM691.204 216.978C691.204 220.845 693.69 223.608 697.143 223.573C700.596 223.608 703.117 220.845 703.117 216.978C703.117 213.18 700.596 210.383 697.143 210.348C693.69 210.383 691.204 213.18 691.204 216.978ZM710.265 234.83V194.602H713.891V211.867H719.657V193.566H723.317V236.971H719.657V215.044H713.891V234.83H710.265ZM744.811 205.238C744.811 213.076 749.852 220.983 756.171 223.884L753.858 226.992C748.92 224.454 744.845 219.257 742.911 213.093C740.995 219.585 736.92 225.144 731.965 227.786L729.514 224.713C735.867 221.57 740.909 213.214 740.943 205.238V197.33H744.811V205.238ZM751.44 211.522V208.38H761.73V193.566H765.529V237.04H761.73V211.522H751.44ZM483.395 266.898V271.111C483.377 276.671 483.377 282.921 481.616 292.382L475.332 291.726C477.024 283.318 477.11 277.068 477.145 271.854H450.97V266.898H483.395ZM446.792 302.05V296.992H461.295V281.712H467.476V296.992H487.331V302.05H446.792ZM530.544 284.578V289.533H490.005V284.578H507.115V280.624H494.909V264.844H525.744V269.747H501.141V275.617H526.176V280.624H513.365V284.578H530.544ZM494.494 297.51V292.606H525.71V307.627H519.563V297.51H494.494ZM568.474 263.1V276.722H574.447V281.833H568.474V296.284H562.224V263.1H568.474ZM533.201 272.665V267.762H543.301V263.031H549.516V267.762H559.582V272.665H533.201ZM535.376 282.852C535.359 277.689 539.917 274.236 546.409 274.236C552.831 274.236 557.338 277.689 557.338 282.852C557.338 287.962 552.831 291.346 546.409 291.329C539.917 291.346 535.359 287.962 535.376 282.852ZM539.641 306.729V293.711H545.856V301.705H570.062V306.729H539.641ZM541.436 282.852C541.436 285.286 543.422 286.598 546.409 286.598C549.378 286.598 551.416 285.286 551.433 282.852C551.416 280.365 549.378 279.001 546.409 278.984C543.422 279.001 541.436 280.365 541.436 282.852ZM611.901 265.707V285.614H590.199V265.707H611.901ZM595.361 307.006V290.396H625.144V307.006H595.361ZM596.328 280.693H605.738V270.68H596.328V280.693ZM601.508 302.016H619.032V295.231H601.508V302.016ZM618.894 288.204V263.1H625.144V288.204H618.894ZM644.997 265.983V270.973H642.683C642.7 274.357 643.339 278.363 645.67 281.47C647.984 278.397 648.622 274.443 648.674 270.973H646.447V265.983H659.12V270.973H654.579C654.613 275.945 656.202 281.108 661.226 283.732L657.911 288.186C654.752 286.529 652.783 283.767 651.609 280.503C650.556 283.818 648.726 286.771 645.636 288.584C642.631 286.788 640.819 283.905 639.765 280.659C638.609 283.853 636.64 286.546 633.533 288.186L630.2 283.732C635.104 281.142 636.796 275.876 636.882 270.973H631.979V265.983H644.997ZM637.107 298.891C637.107 293.47 642.994 290.31 652.542 290.31C662.124 290.31 668.098 293.47 668.115 298.891C668.098 304.381 662.124 307.506 652.542 307.489C642.994 307.506 637.107 304.381 637.107 298.891ZM643.391 298.891C643.374 301.446 646.551 302.655 652.542 302.637C658.533 302.655 661.727 301.446 661.761 298.891C661.727 296.439 658.533 295.231 652.542 295.248C646.551 295.231 643.374 296.439 643.391 298.891ZM661.485 289.844V263.031H667.7V273.77H672.293V278.967H667.7V289.844H661.485ZM712.337 281.108V286.115H703.721V293.418C707.382 293.262 711.042 293.021 714.512 292.658L714.978 297.182C705.275 298.684 695.175 298.753 686.801 298.753L686.094 293.677C689.633 293.694 693.5 293.677 697.489 293.608V286.115H689.011V267.002H712.129V271.94H695.192V281.108H712.337ZM717.033 307.61V263.031H723.231V307.61H717.033ZM766.444 263.031V307.506H760.142V263.031H766.444ZM729.255 294.92C740.719 289.481 745.777 282.472 746.779 272.596H731.637V267.71H753.132C753.115 281.177 748.384 292.382 732.501 299.875L729.255 294.92Z" fill="#26252A"/>
<rect x="30.9844" y="23.0176" width="57.9668" height="19.3223" rx="9.66113" transform="rotate(102.035 30.9844 23.0176)" fill="#FFE8E1"/>
<rect x="113.07" y="412.235" width="57.9668" height="19.3223" rx="9.66113" transform="rotate(-27.1197 113.07 412.235)" fill="#FFE8E1"/>
<circle cx="354.907" cy="28.6494" r="9.66113" fill="#E4E7FF"/>
<circle cx="606.083" cy="66.5225" r="9.66113" fill="#E4E7FF"/>
<circle cx="281.474" cy="249.439" r="9.66113" fill="#E4E7FF"/>
<circle cx="363.911" cy="418.188" r="9.66113" fill="#E4E7FF"/>
<rect x="319.875" y="119.87" width="57.9668" height="19.3223" rx="9.66113" transform="rotate(-130.648 319.875 119.87)" fill="#B9C0FE"/>
<circle cx="213.196" cy="360.221" r="9.66113" fill="#FDBFAC"/>
<circle cx="742.446" cy="9.66113" r="9.66113" fill="#FFE8E1"/>
<circle cx="204.181" cy="85.8447" r="9.66113" fill="#B9C0FE"/>
<circle cx="761.435" cy="467.974" r="9.66113" fill="#B9C0FE"/>
<rect x="146.641" y="239.945" width="57.9668" height="19.3223" rx="9.66113" transform="rotate(35.1789 146.641 239.945)" fill="#E4E7FF"/>
<path d="M836.059 372C836.059 373.072 836.928 373.941 838 373.941C839.072 373.941 839.941 373.072 839.941 372C839.941 370.928 839.072 370.059 838 370.059C836.928 370.059 836.059 370.928 836.059 372ZM776.059 372C776.059 373.072 776.928 373.941 778 373.941C779.072 373.941 779.941 373.072 779.941 372C779.941 370.928 779.072 370.059 778 370.059C776.928 370.059 776.059 370.928 776.059 372ZM778 372.364L778.714 372.364L778.714 371.636L778 371.636L778 372.364ZM780.143 372.364L781.571 372.364L781.571 371.636L780.143 371.636L780.143 372.364ZM783 372.364L784.429 372.364L784.429 371.636L783 371.636L783 372.364ZM785.857 372.364L787.286 372.364L787.286 371.636L785.857 371.636L785.857 372.364ZM788.714 372.364L790.143 372.364L790.143 371.636L788.714 371.636L788.714 372.364ZM791.571 372.364L793 372.364L793 371.636L791.571 371.636L791.571 372.364ZM794.429 372.364L795.857 372.364L795.857 371.636L794.429 371.636L794.429 372.364ZM797.286 372.364L798.714 372.364L798.714 371.636L797.286 371.636L797.286 372.364ZM800.143 372.364L801.571 372.364L801.571 371.636L800.143 371.636L800.143 372.364ZM803 372.364L804.429 372.364L804.429 371.636L803 371.636L803 372.364ZM805.857 372.364L807.286 372.364L807.286 371.636L805.857 371.636L805.857 372.364ZM808.714 372.364L810.143 372.364L810.143 371.636L808.714 371.636L808.714 372.364ZM811.571 372.364L813 372.364L813 371.636L811.571 371.636L811.571 372.364ZM814.429 372.364L815.857 372.364L815.857 371.636L814.429 371.636L814.429 372.364ZM817.286 372.364L818.714 372.364L818.714 371.636L817.286 371.636L817.286 372.364ZM820.143 372.364L821.571 372.364L821.571 371.636L820.143 371.636L820.143 372.364ZM823 372.364L824.429 372.364L824.429 371.636L823 371.636L823 372.364ZM825.857 372.364L827.286 372.364L827.286 371.636L825.857 371.636L825.857 372.364ZM828.714 372.364L830.143 372.364L830.143 371.636L828.714 371.636L828.714 372.364ZM831.571 372.364L833 372.364L833 371.636L831.571 371.636L831.571 372.364ZM834.429 372.364L835.857 372.364L835.857 371.636L834.429 371.636L834.429 372.364ZM837.286 372.364L838 372.364L838 371.636L837.286 371.636L837.286 372.364Z" fill="#6D7BFF"/>
</svg>
